<svg xmlns="http://www.w3.org/2000/svg" viewBox="0 0 1200 800" width="1200" height="800" role="presentation">
  <defs>
    <radialGradient id="key-rose-halftone" cx="50%" cy="30%" r="78%">
      <stop offset="0%" stop-color="#FF6FA8" stop-opacity="0.55"/>
      <stop offset="45%" stop-color="#FFC93B" stop-opacity="0.24"/>
      <stop offset="100%" stop-color="#160A12" stop-opacity="0"/>
    </radialGradient>
    <linearGradient id="floor-rose-halftone" x1="0" y1="0" x2="0" y2="1">
      <stop offset="0%" stop-color="#160A12" stop-opacity="0"/>
      <stop offset="70%" stop-color="#000" stop-opacity="0.55"/>
      <stop offset="100%" stop-color="#000" stop-opacity="0.9"/>
    </linearGradient>
    
  <filter id="grain-rose-halftone" x="0" y="0" width="100%" height="100%">
    <feTurbulence type="fractalNoise" baseFrequency="0.9" numOctaves="3" stitchTiles="stitch" seed="7"/>
    <feColorMatrix type="saturate" values="0"/>
  </filter>
  </defs>
  <rect width="1200" height="800" fill="#160A12"/>
  <circle cx="37.5" cy="262.5" r="0.74"
            fill="#FF6FA8" opacity="0.30"/><circle cx="37.5" cy="337.5" r="1.42"
            fill="#FF6FA8" opacity="0.30"/><circle cx="37.5" cy="412.5" r="0.87"
            fill="#FF6FA8" opacity="0.30"/><circle cx="112.5" cy="187.5" r="2.99"
            fill="#FF6FA8" opacity="0.30"/><circle cx="112.5" cy="262.5" r="5.09"
            fill="#FF6FA8" opacity="0.30"/><circle cx="112.5" cy="337.5" r="5.88"
            fill="#FF6FA8" opacity="0.30"/><circle cx="112.5" cy="412.5" r="5.24"
            fill="#FF6FA8" opacity="0.30"/><circle cx="112.5" cy="487.5" r="3.27"
            fill="#FFC93B" opacity="0.30"/><circle cx="187.5" cy="112.5" r="3.44"
            fill="#FF6FA8" opacity="0.30"/><circle cx="187.5" cy="187.5" r="7.02"
            fill="#FF6FA8" opacity="0.30"/><circle cx="187.5" cy="262.5" r="9.42"
            fill="#FF6FA8" opacity="0.30"/><circle cx="187.5" cy="337.5" r="10.33"
            fill="#FF6FA8" opacity="0.30"/><circle cx="187.5" cy="412.5" r="9.59"
            fill="#FFC93B" opacity="0.30"/><circle cx="187.5" cy="487.5" r="7.34"
            fill="#FF6FA8" opacity="0.30"/><circle cx="187.5" cy="562.5" r="3.86"
            fill="#FF6FA8" opacity="0.30"/><circle cx="262.5" cy="37.5" r="2.00"
            fill="#FF6FA8" opacity="0.30"/><circle cx="262.5" cy="112.5" r="6.86"
            fill="#FF6FA8" opacity="0.30"/><circle cx="262.5" cy="187.5" r="10.90"
            fill="#FF6FA8" opacity="0.30"/><circle cx="262.5" cy="262.5" r="13.70"
            fill="#FF6FA8" opacity="0.30"/><circle cx="262.5" cy="337.5" r="14.78"
            fill="#FFC93B" opacity="0.30"/><circle cx="262.5" cy="412.5" r="13.90"
            fill="#FF6FA8" opacity="0.30"/><circle cx="262.5" cy="487.5" r="11.27"
            fill="#FF6FA8" opacity="0.30"/><circle cx="262.5" cy="562.5" r="7.33"
            fill="#FF6FA8" opacity="0.30"/><circle cx="262.5" cy="637.5" r="2.54"
            fill="#FF6FA8" opacity="0.30"/><circle cx="337.5" cy="37.5" r="4.64"
            fill="#FF6FA8" opacity="0.30"/><circle cx="337.5" cy="112.5" r="9.97"
            fill="#FF6FA8" opacity="0.30"/><circle cx="337.5" cy="187.5" r="14.57"
            fill="#FF6FA8" opacity="0.30"/><circle cx="337.5" cy="262.5" r="17.90"
            fill="#FFC93B" opacity="0.30"/><circle cx="337.5" cy="337.5" r="19.23"
            fill="#FF6FA8" opacity="0.30"/><circle cx="337.5" cy="412.5" r="18.15"
            fill="#FF6FA8" opacity="0.30"/><circle cx="337.5" cy="487.5" r="15.00"
            fill="#FF6FA8" opacity="0.30"/><circle cx="337.5" cy="562.5" r="10.50"
            fill="#FF6FA8" opacity="0.30"/><circle cx="337.5" cy="637.5" r="5.23"
            fill="#FF6FA8" opacity="0.30"/><circle cx="412.5" cy="37.5" r="6.86"
            fill="#FF6FA8" opacity="0.30"/><circle cx="412.5" cy="112.5" r="12.67"
            fill="#FF6FA8" opacity="0.30"/><circle cx="412.5" cy="187.5" r="17.90"
            fill="#FFC93B" opacity="0.30"/><circle cx="412.5" cy="262.5" r="21.95"
            fill="#FF6FA8" opacity="0.30"/><circle cx="412.5" cy="337.5" r="23.69"
            fill="#FF6FA8" opacity="0.30"/><circle cx="412.5" cy="412.5" r="22.27"
            fill="#FF6FA8" opacity="0.30"/><circle cx="412.5" cy="487.5" r="18.41"
            fill="#FF6FA8" opacity="0.30"/><circle cx="412.5" cy="562.5" r="13.26"
            fill="#FF6FA8" opacity="0.30"/><circle cx="412.5" cy="637.5" r="7.50"
            fill="#FF6FA8" opacity="0.30"/><circle cx="412.5" cy="712.5" r="1.41"
            fill="#FFC93B" opacity="0.30"/><circle cx="487.5" cy="37.5" r="8.55"
            fill="#FF6FA8" opacity="0.30"/><circle cx="487.5" cy="112.5" r="14.79"
            fill="#FFC93B" opacity="0.30"/><circle cx="487.5" cy="187.5" r="20.70"
            fill="#FF6FA8" opacity="0.30"/><circle cx="487.5" cy="262.5" r="25.70"
            fill="#FF6FA8" opacity="0.30"/><circle cx="487.5" cy="337.5" r="28.14"
            fill="#FF6FA8" opacity="0.30"/><circle cx="487.5" cy="412.5" r="26.13"
            fill="#FF6FA8" opacity="0.30"/><circle cx="487.5" cy="487.5" r="21.29"
            fill="#FF6FA8" opacity="0.30"/><circle cx="487.5" cy="562.5" r="15.45"
            fill="#FF6FA8" opacity="0.30"/><circle cx="487.5" cy="637.5" r="9.22"
            fill="#FFC93B" opacity="0.30"/><circle cx="487.5" cy="712.5" r="2.83"
            fill="#FF6FA8" opacity="0.30"/><circle cx="562.5" cy="37.5" r="9.61"
            fill="#FFC93B" opacity="0.30"/><circle cx="562.5" cy="112.5" r="16.17"
            fill="#FF6FA8" opacity="0.30"/><circle cx="562.5" cy="187.5" r="22.63"
            fill="#FF6FA8" opacity="0.30"/><circle cx="562.5" cy="262.5" r="28.72"
            fill="#FF6FA8" opacity="0.30"/><circle cx="562.5" cy="337.5" r="32.58"
            fill="#FF6FA8" opacity="0.30"/><circle cx="562.5" cy="412.5" r="29.32"
            fill="#FF6FA8" opacity="0.30"/><circle cx="562.5" cy="487.5" r="23.31"
            fill="#FF6FA8" opacity="0.30"/><circle cx="562.5" cy="562.5" r="16.87"
            fill="#FFC93B" opacity="0.30"/><circle cx="562.5" cy="637.5" r="10.31"
            fill="#FF6FA8" opacity="0.30"/><circle cx="562.5" cy="712.5" r="3.71"
            fill="#FF6FA8" opacity="0.30"/><circle cx="637.5" cy="37.5" r="9.98"
            fill="#FF6FA8" opacity="0.30"/><circle cx="637.5" cy="112.5" r="16.65"
            fill="#FF6FA8" opacity="0.30"/><circle cx="637.5" cy="187.5" r="23.33"
            fill="#FF6FA8" opacity="0.30"/><circle cx="637.5" cy="262.5" r="30.01"
            fill="#FF6FA8" opacity="0.30"/><circle cx="637.5" cy="337.5" r="36.69"
            fill="#FF6FA8" opacity="0.30"/><circle cx="637.5" cy="412.5" r="30.73"
            fill="#FF6FA8" opacity="0.30"/><circle cx="637.5" cy="487.5" r="24.05"
            fill="#FFC93B" opacity="0.30"/><circle cx="637.5" cy="562.5" r="17.37"
            fill="#FF6FA8" opacity="0.30"/><circle cx="637.5" cy="637.5" r="10.69"
            fill="#FF6FA8" opacity="0.30"/><circle cx="637.5" cy="712.5" r="4.01"
            fill="#FF6FA8" opacity="0.30"/><circle cx="712.5" cy="37.5" r="9.61"
            fill="#FF6FA8" opacity="0.30"/><circle cx="712.5" cy="112.5" r="16.17"
            fill="#FF6FA8" opacity="0.30"/><circle cx="712.5" cy="187.5" r="22.63"
            fill="#FF6FA8" opacity="0.30"/><circle cx="712.5" cy="262.5" r="28.72"
            fill="#FF6FA8" opacity="0.30"/><circle cx="712.5" cy="337.5" r="32.58"
            fill="#FF6FA8" opacity="0.30"/><circle cx="712.5" cy="412.5" r="29.32"
            fill="#FFC93B" opacity="0.30"/><circle cx="712.5" cy="487.5" r="23.31"
            fill="#FF6FA8" opacity="0.30"/><circle cx="712.5" cy="562.5" r="16.87"
            fill="#FF6FA8" opacity="0.30"/><circle cx="712.5" cy="637.5" r="10.31"
            fill="#FF6FA8" opacity="0.30"/><circle cx="712.5" cy="712.5" r="3.71"
            fill="#FF6FA8" opacity="0.30"/><circle cx="787.5" cy="37.5" r="8.55"
            fill="#FF6FA8" opacity="0.30"/><circle cx="787.5" cy="112.5" r="14.79"
            fill="#FF6FA8" opacity="0.30"/><circle cx="787.5" cy="187.5" r="20.70"
            fill="#FF6FA8" opacity="0.30"/><circle cx="787.5" cy="262.5" r="25.70"
            fill="#FF6FA8" opacity="0.30"/><circle cx="787.5" cy="337.5" r="28.14"
            fill="#FFC93B" opacity="0.30"/><circle cx="787.5" cy="412.5" r="26.13"
            fill="#FF6FA8" opacity="0.30"/><circle cx="787.5" cy="487.5" r="21.29"
            fill="#FF6FA8" opacity="0.30"/><circle cx="787.5" cy="562.5" r="15.45"
            fill="#FF6FA8" opacity="0.30"/><circle cx="787.5" cy="637.5" r="9.22"
            fill="#FF6FA8" opacity="0.30"/><circle cx="787.5" cy="712.5" r="2.83"
            fill="#FF6FA8" opacity="0.30"/><circle cx="862.5" cy="37.5" r="6.86"
            fill="#FF6FA8" opacity="0.30"/><circle cx="862.5" cy="112.5" r="12.67"
            fill="#FF6FA8" opacity="0.30"/><circle cx="862.5" cy="187.5" r="17.90"
            fill="#FF6FA8" opacity="0.30"/><circle cx="862.5" cy="262.5" r="21.95"
            fill="#FFC93B" opacity="0.30"/><circle cx="862.5" cy="337.5" r="23.69"
            fill="#FF6FA8" opacity="0.30"/><circle cx="862.5" cy="412.5" r="22.27"
            fill="#FF6FA8" opacity="0.30"/><circle cx="862.5" cy="487.5" r="18.41"
            fill="#FF6FA8" opacity="0.30"/><circle cx="862.5" cy="562.5" r="13.26"
            fill="#FF6FA8" opacity="0.30"/><circle cx="862.5" cy="637.5" r="7.50"
            fill="#FF6FA8" opacity="0.30"/><circle cx="862.5" cy="712.5" r="1.41"
            fill="#FF6FA8" opacity="0.30"/><circle cx="937.5" cy="37.5" r="4.64"
            fill="#FF6FA8" opacity="0.30"/><circle cx="937.5" cy="112.5" r="9.97"
            fill="#FF6FA8" opacity="0.30"/><circle cx="937.5" cy="187.5" r="14.57"
            fill="#FFC93B" opacity="0.30"/><circle cx="937.5" cy="262.5" r="17.90"
            fill="#FF6FA8" opacity="0.30"/><circle cx="937.5" cy="337.5" r="19.23"
            fill="#FF6FA8" opacity="0.30"/><circle cx="937.5" cy="412.5" r="18.15"
            fill="#FF6FA8" opacity="0.30"/><circle cx="937.5" cy="487.5" r="15.00"
            fill="#FF6FA8" opacity="0.30"/><circle cx="937.5" cy="562.5" r="10.50"
            fill="#FF6FA8" opacity="0.30"/><circle cx="937.5" cy="637.5" r="5.23"
            fill="#FF6FA8" opacity="0.30"/><circle cx="1012.5" cy="37.5" r="2.00"
            fill="#FF6FA8" opacity="0.30"/><circle cx="1012.5" cy="112.5" r="6.86"
            fill="#FFC93B" opacity="0.30"/><circle cx="1012.5" cy="187.5" r="10.90"
            fill="#FF6FA8" opacity="0.30"/><circle cx="1012.5" cy="262.5" r="13.70"
            fill="#FF6FA8" opacity="0.30"/><circle cx="1012.5" cy="337.5" r="14.78"
            fill="#FF6FA8" opacity="0.30"/><circle cx="1012.5" cy="412.5" r="13.90"
            fill="#FF6FA8" opacity="0.30"/><circle cx="1012.5" cy="487.5" r="11.27"
            fill="#FF6FA8" opacity="0.30"/><circle cx="1012.5" cy="562.5" r="7.33"
            fill="#FF6FA8" opacity="0.30"/><circle cx="1012.5" cy="637.5" r="2.54"
            fill="#FFC93B" opacity="0.30"/><circle cx="1087.5" cy="112.5" r="3.44"
            fill="#FF6FA8" opacity="0.30"/><circle cx="1087.5" cy="187.5" r="7.02"
            fill="#FF6FA8" opacity="0.30"/><circle cx="1087.5" cy="262.5" r="9.42"
            fill="#FF6FA8" opacity="0.30"/><circle cx="1087.5" cy="337.5" r="10.33"
            fill="#FF6FA8" opacity="0.30"/><circle cx="1087.5" cy="412.5" r="9.59"
            fill="#FF6FA8" opacity="0.30"/><circle cx="1087.5" cy="487.5" r="7.34"
            fill="#FF6FA8" opacity="0.30"/><circle cx="1087.5" cy="562.5" r="3.86"
            fill="#FFC93B" opacity="0.30"/><circle cx="1162.5" cy="187.5" r="2.99"
            fill="#FF6FA8" opacity="0.30"/><circle cx="1162.5" cy="262.5" r="5.09"
            fill="#FF6FA8" opacity="0.30"/><circle cx="1162.5" cy="337.5" r="5.88"
            fill="#FF6FA8" opacity="0.30"/><circle cx="1162.5" cy="412.5" r="5.24"
            fill="#FF6FA8" opacity="0.30"/><circle cx="1162.5" cy="487.5" r="3.27"
            fill="#FFC93B" opacity="0.30"/>
  <rect width="1200" height="800" fill="url(#key-rose-halftone)"/>
  <rect width="1200" height="800" fill="url(#floor-rose-halftone)"/>
  <rect width="100%" height="100%" filter="url(#grain-rose-halftone)" opacity="0.16" style="mix-blend-mode:overlay"/>
</svg>
